<svg width="60" height="60" viewBox="0 0 60 60" fill="none" xmlns="http://www.w3.org/2000/svg">
<path d="M30.4197 0.0027873C13.5483 -0.225076 -0.225087 13.5477 0.00278743 30.4182C0.227777 46.5979 13.4027 59.7722 29.5832 59.9971C46.4574 60.2279 60.2279 46.4552 59.9971 29.5846C59.775 13.402 46.6002 0.227766 30.4197 0.0027873ZM48.6525 47.1979C48.595 47.26 48.5246 47.3087 48.4462 47.3406C48.3678 47.3725 48.2834 47.3867 48.1989 47.3823C48.1144 47.3779 48.0319 47.355 47.9572 47.3151C47.8826 47.2753 47.8176 47.2195 47.7669 47.1517C46.4769 45.464 44.8971 44.0191 43.1013 42.8843C39.4293 40.5278 34.7767 39.2299 30.0014 39.2299C25.2261 39.2299 20.5735 40.5278 16.9015 42.8843C15.1058 44.0186 13.526 45.463 12.2359 47.1503C12.1852 47.218 12.1202 47.2738 12.0456 47.3137C11.9709 47.3535 11.8884 47.3765 11.8039 47.3809C11.7194 47.3853 11.635 47.371 11.5566 47.3391C11.4782 47.3073 11.4078 47.2585 11.3503 47.1964C7.11834 42.6282 4.72107 36.6589 4.61796 30.4326C4.38287 16.3988 15.8992 4.65235 29.9394 4.61774C43.9796 4.58313 55.3849 15.9835 55.3849 30C55.3897 36.3764 52.985 42.5192 48.6525 47.1979Z" fill="#F4F4F4"/>
<path d="M30.0014 13.8476C27.1573 13.8476 24.5858 14.9134 22.7585 16.8502C20.9312 18.7871 20.0182 21.4652 20.2245 24.3394C20.6427 30 25.0286 34.6149 30.0014 34.6149C34.9743 34.6149 39.3515 30 39.7784 24.3409C39.9918 21.494 39.0861 18.8404 37.2285 16.8675C35.3939 14.9206 32.8268 13.8476 30.0014 13.8476Z" fill="#F4F4F4"/>
</svg>
