<svg width="50" height="43" viewBox="0 0 50 43" fill="none" xmlns="http://www.w3.org/2000/svg">
<path d="M0 3.57143C0 1.59933 1.59933 0 3.57143 0H46.4286C48.404 0 50 1.59933 50 3.57143C50 5.54688 48.404 7.14286 46.4286 7.14286H3.57143C1.59933 7.14286 0 5.54688 0 3.57143ZM0 21.4286C0 19.4531 1.59933 17.8571 3.57143 17.8571H46.4286C48.404 17.8571 50 19.4531 50 21.4286C50 23.404 48.404 25 46.4286 25H3.57143C1.59933 25 0 23.404 0 21.4286ZM46.4286 42.8571H3.57143C1.59933 42.8571 0 41.2612 0 39.2857C0 37.3103 1.59933 35.7143 3.57143 35.7143H46.4286C48.404 35.7143 50 37.3103 50 39.2857C50 41.2612 48.404 42.8571 46.4286 42.8571Z" fill="#F4F4F4"/>
</svg>
