<svg width="50" height="50" viewBox="0 0 50 50" fill="none" xmlns="http://www.w3.org/2000/svg">
<path d="M48.5275 41.4694C50.4804 43.4224 50.4804 46.5862 48.5275 48.5392C47.5588 49.5157 46.2776 50 44.9965 50C43.7153 50 42.4373 49.5118 41.4624 48.5353L24.998 32.0795L8.53527 48.5314C7.55878 49.5157 6.2792 50 4.99961 50C3.72002 50 2.442 49.5157 1.46473 48.5314C-0.488243 46.5784 -0.488243 43.4146 1.46473 41.4616L17.9322 24.9941L1.46473 8.53449C-0.488243 6.58152 -0.488243 3.4177 1.46473 1.46473C3.4177 -0.488243 6.58152 -0.488243 8.53449 1.46473L24.998 17.94L41.4655 1.47254C43.4185 -0.480431 46.5823 -0.480431 48.5353 1.47254C50.4882 3.42551 50.4882 6.58933 48.5353 8.5423L32.0678 25.0098L48.5275 41.4694Z" fill="#F4F4F4"/>
</svg>
