<svg width="55" height="53" viewBox="0 0 55 53" fill="none" xmlns="http://www.w3.org/2000/svg">
<path d="M17.188 45H10.3128C8.41462 45 6.87522 43.3207 6.87522 41.25V11.25C6.87522 9.1793 8.41462 7.5 10.3128 7.5H17.188C19.0863 7.5 20.6257 5.8207 20.6257 3.75C20.6257 1.6793 19.0895 0 17.188 0H10.3128C4.61714 0 0 5.03672 0 11.25V41.25C0 47.4633 4.61714 52.5 10.3128 52.5H17.188C19.0863 52.5 20.6257 50.8207 20.6257 48.75C20.6257 46.6793 19.0895 45 17.188 45ZM53.9919 23.6016L40.2415 8.60156C38.8976 7.13555 36.7223 7.13789 35.3805 8.60156C34.0377 10.0664 34.0377 12.4395 35.3805 13.9043L43.2709 22.5H20.6257C18.7242 22.5 17.188 24.1758 17.188 26.25C17.188 28.3242 18.7253 30 20.6257 30H43.2709L35.388 38.5992C34.0452 40.0641 34.0452 42.4371 35.388 43.902C36.7309 45.3668 38.9062 45.3668 40.249 43.902L53.9995 28.902C55.3348 27.4336 55.3348 25.0664 53.9919 23.6016Z" fill="#F4F4F4"/>
</svg>
