<svg width="61" height="63" viewBox="0 0 61 63" fill="none" xmlns="http://www.w3.org/2000/svg">
<path d="M31.3316 22.8714C29.5956 22.6999 27.849 23.0692 26.3311 23.9287C24.8131 24.7883 23.5979 26.096 22.8519 27.6728C22.1058 29.2496 21.8654 31.0185 22.1635 32.7373C22.4616 34.4561 23.2837 36.0407 24.5172 37.2742C25.7507 38.5076 27.3353 39.3297 29.054 39.6278C30.7728 39.926 32.5417 39.6855 34.1185 38.9395C35.6954 38.1934 37.0031 36.9782 37.8626 35.4603C38.7221 33.9423 39.0914 32.1958 38.92 30.4598C38.7245 28.5137 37.8622 26.6951 36.4792 25.3121C35.0962 23.9291 33.2776 23.0668 31.3316 22.8714V22.8714ZM51.704 31.2913C51.6986 32.211 51.631 33.1293 51.5017 34.0398L57.4786 38.7277C57.7388 38.9435 57.9142 39.2445 57.9735 39.5773C58.0328 39.9101 57.9722 40.2532 57.8025 40.5455L52.1482 50.3285C51.9764 50.618 51.708 50.8377 51.3902 50.9487C51.0724 51.0597 50.7257 51.055 50.411 50.9353L44.4751 48.5451C44.1478 48.4148 43.7932 48.3677 43.4432 48.408C43.0932 48.4484 42.7587 48.575 42.4696 48.7764C41.5637 49.4003 40.6118 49.9545 39.622 50.4343C39.3108 50.5855 39.0417 50.811 38.8383 51.0909C38.6349 51.3708 38.5036 51.6965 38.4559 52.0392L37.5662 58.3704C37.5078 58.7047 37.335 59.0084 37.0775 59.2295C36.82 59.4507 36.4937 59.5755 36.1543 59.5827H24.8457C24.5119 59.5769 24.1901 59.4576 23.9332 59.2445C23.6763 59.0313 23.4997 58.737 23.4325 58.41L22.5441 52.0881C22.4942 51.7417 22.3594 51.4129 22.1519 51.131C21.9443 50.8492 21.6703 50.623 21.3542 50.4726C20.3656 49.9954 19.4169 49.4397 18.5172 48.8108C18.2291 48.6104 17.8957 48.4848 17.5469 48.4453C17.1982 48.4058 16.8452 48.4538 16.5196 48.5847L10.585 50.9736C10.2705 51.0934 9.92384 51.0983 9.60607 50.9876C9.28829 50.8768 9.01979 50.6575 8.84787 50.3682L3.19357 40.5852C3.02358 40.2929 2.96283 39.9498 3.02214 39.6169C3.08146 39.284 3.25698 38.983 3.51747 38.7674L8.56893 34.8013C8.84568 34.5816 9.06318 34.2963 9.2017 33.9712C9.34022 33.6462 9.39537 33.2917 9.36214 32.9399C9.31455 32.3886 9.28546 31.8387 9.28546 31.2874C9.28546 30.7361 9.31323 30.1941 9.36214 29.6547C9.39173 29.305 9.33388 28.9535 9.1938 28.6318C9.05371 28.3101 8.83579 28.0283 8.55967 27.8118L3.51086 23.8457C3.2546 23.629 3.08277 23.329 3.02548 22.9984C2.9682 22.6677 3.02911 22.3274 3.19754 22.0372L8.85184 12.2542C9.02355 11.9646 9.29196 11.745 9.60976 11.634C9.92755 11.523 10.2743 11.5277 10.589 11.6474L16.5249 14.0376C16.8522 14.1679 17.2068 14.215 17.5568 14.1746C17.9068 14.1343 18.2413 14.0077 18.5304 13.8062C19.4363 13.1824 20.3883 12.6282 21.378 12.1484C21.6892 11.9972 21.9584 11.7716 22.1617 11.4917C22.3651 11.2118 22.4964 10.8862 22.5441 10.5435L23.4338 4.2123C23.4922 3.87793 23.665 3.57424 23.9225 3.35312C24.18 3.132 24.5063 3.00719 24.8457 3H36.1543C36.4881 3.00577 36.8099 3.12506 37.0668 3.33822C37.3237 3.55137 37.5003 3.84567 37.5675 4.17264L38.4559 10.4946C38.5058 10.841 38.6406 11.1698 38.8481 11.4516C39.0557 11.7335 39.3297 11.9597 39.6458 12.1101C40.6344 12.5873 41.5831 13.143 42.4828 13.7719C42.7709 13.9723 43.1043 14.0979 43.4531 14.1374C43.8018 14.1768 44.1548 14.1289 44.4804 13.9979L50.415 11.609C50.7295 11.4893 51.0762 11.4843 51.3939 11.5951C51.7117 11.7059 51.9802 11.9252 52.1521 12.2145L57.8064 21.9975C57.9764 22.2898 58.0372 22.6329 57.9779 22.9658C57.9185 23.2987 57.743 23.5997 57.4825 23.8153L52.4311 27.7814C52.1531 28.0003 51.9343 28.2853 51.7947 28.6104C51.655 28.9355 51.5988 29.2904 51.6312 29.6428C51.6749 30.1901 51.704 30.7401 51.704 31.2913Z" stroke="white" stroke-width="5" stroke-linecap="round" stroke-linejoin="round"/>
</svg>
